<svg xmlns="http://www.w3.org/2000/svg" width="17" height="16" viewBox="0 0 17 16" fill="none">
  <path d="M8.97357 0C4.55835 0 0.967163 3.58832 0.967163 8C0.967163 12.4117 4.55835 16 8.97357 16C13.3888 16 16.98 12.4117 16.98 8C16.98 3.58832 13.3888 0 8.97357 0ZM16.2075 7.61905H13.6708C13.5993 4.88889 12.7584 2.55746 11.4974 1.21625C14.1385 2.19939 16.0548 4.68064 16.2075 7.61905ZM8.59536 0.797715C8.59536 0.810611 8.59238 0.825494 8.59238 0.83839V7.61909H5.03906C5.14629 4.09629 6.69904 1.14794 8.59536 0.797715ZM8.59238 8.38095V15.1617C8.59238 15.1745 8.59536 15.1894 8.59536 15.2023C6.697 14.8521 5.14422 11.9038 5.04001 8.38099L8.59238 8.38095ZM9.35192 15.2023C9.35192 15.1894 9.3549 15.1745 9.3549 15.1616V8.38091H12.9082C12.801 11.9037 11.2482 14.8521 9.35192 15.2023ZM9.3549 7.61905V0.838349C9.3549 0.825453 9.35192 0.81057 9.35192 0.797674C11.2503 1.14787 12.8031 4.09621 12.9073 7.61901L9.3549 7.61905ZM6.44972 1.21625C5.1888 2.55751 4.34785 4.88889 4.27635 7.61905H1.73959C1.89249 4.68064 3.80878 2.19937 6.44972 1.21625ZM1.73967 8.38095H4.27643C4.34791 11.1111 5.18885 13.4425 6.4498 14.7837C3.8087 13.8006 1.89242 11.3194 1.73967 8.38095ZM11.4976 14.7837C12.7585 13.4425 13.5994 11.1111 13.6709 8.38095H16.2077C16.0548 11.3194 14.1385 13.8006 11.4976 14.7837Z" fill="white"/>
</svg>