<svg xmlns="http://www.w3.org/2000/svg" width="77" height="29" viewBox="0 0 77 29" fill="none">
  <path d="M17.4306 6.88512L22.826 4.31495L21.2318 10.0746L21.0962 10.5645L21.5882 10.692L26.1543 11.8752L26.2797 11.9078L26.4051 11.8752L30.9712 10.692L31.4632 10.5645L31.3276 10.0746L29.7335 4.31495L35.1288 6.88512L35.5877 7.10372L35.7987 6.64129L38.2797 1.20439L40.7607 6.64129L40.9717 7.10372L41.4306 6.88512L46.826 4.31495L45.2318 10.0746L45.0962 10.5645L45.5882 10.692L50.1543 11.8752L50.2797 11.9078L50.4051 11.8752L54.9712 10.692L55.4632 10.5645L55.3276 10.0746L53.7335 4.31495L59.1288 6.88512L59.5877 7.10372L59.7987 6.64129L62.2797 1.20439L64.7607 6.64129L64.9717 7.10372L65.4306 6.88512L70.826 4.31495L69.2318 10.0746L69.0962 10.5645L69.5882 10.692L75.3733 12.1912L70.4499 15.5787L70.0311 15.8668L70.3261 16.2807L73.794 21.1478L67.8451 20.578L67.3391 20.5295L67.299 21.0362L66.8271 26.9937L62.6362 22.7333L62.2797 22.371L61.9233 22.7333L57.7323 26.9937L57.2605 21.0362L57.2203 20.5295L56.7144 20.578L50.7654 21.1478L54.2333 16.2807L54.5283 15.8668L54.1095 15.5787L50.5631 13.1386L50.2797 12.9436L49.9963 13.1386L46.4499 15.5787L46.0311 15.8668L46.3261 16.2807L49.794 21.1478L43.8451 20.578L43.3391 20.5295L43.299 21.0362L42.8271 26.9937L38.6362 22.7333L38.2797 22.371L37.9233 22.7333L33.7323 26.9937L33.2605 21.0362L33.2203 20.5295L32.7144 20.578L26.7654 21.1478L30.2333 16.2807L30.5283 15.8668L30.1095 15.5787L26.5631 13.1386L26.2797 12.9436L25.9963 13.1386L22.4499 15.5787L22.0311 15.8668L22.3261 16.2807L25.794 21.1478L19.8451 20.578L19.3391 20.5295L19.299 21.0362L18.8271 26.9937L14.6362 22.7333L14.2797 22.371L13.9233 22.7333L9.73234 26.9937L9.26046 21.0362L9.22033 20.5295L8.71435 20.578L2.76538 21.1478L6.23332 16.2807L6.52828 15.8668L6.10953 15.5787L1.18608 12.1912L6.97118 10.692L7.46322 10.5645L7.32763 10.0746L5.73345 4.31495L11.1288 6.88512L11.5877 7.10372L11.7987 6.64129L14.2797 1.20439L16.7607 6.64129L16.9717 7.10372L17.4306 6.88512ZM50.1912 21.7051L49.9088 21.7322L49.7846 21.744L49.78 21.7911L49.7223 21.75L49.712 21.6422L49.5492 21.6266L49.2189 21.595L50.1912 21.7051Z" stroke="white"/>
</svg>